<svg width="24" height="18" viewBox="0 0 24 18" fill="none" xmlns="http://www.w3.org/2000/svg">
<path d="M12.75 9.52146e-08C14.4859 8.14746e-05 16.168 0.602183 17.5097 1.70367C18.8513 2.80516 19.7694 4.33786 20.1075 6.0405C21.2389 6.19332 22.2699 6.77046 22.9917 7.65501C23.7135 8.53955 24.0721 9.66538 23.9948 10.8044C23.9176 11.9435 23.4103 13.0106 22.5757 13.7896C21.7411 14.5686 20.6417 15.0013 19.5 15H5.25C3.98732 15.0003 2.76683 14.5456 1.81223 13.7191C0.857631 12.8926 0.232882 11.7497 0.0525 10.5H8.25C8.44891 10.5 8.63968 10.421 8.78033 10.2803C8.92098 10.1397 9 9.94891 9 9.75C9 9.55109 8.92098 9.36032 8.78033 9.21967C8.63968 9.07902 8.44891 9 8.25 9H0.0525C0.24767 7.64583 0.963763 6.42134 2.04829 5.58728C3.13283 4.75322 4.50011 4.37548 5.859 4.5345C6.43886 3.18799 7.40056 2.0409 8.62526 1.23501C9.84995 0.429127 11.2839 -0.000233438 12.75 9.52146e-08V9.52146e-08ZM3.75 12C3.55109 12 3.36032 12.079 3.21967 12.2197C3.07902 12.3603 3 12.5511 3 12.75C3 12.9489 3.07902 13.1397 3.21967 13.2803C3.36032 13.421 3.55109 13.5 3.75 13.5H17.25C17.4489 13.5 17.6397 13.421 17.7803 13.2803C17.921 13.1397 18 12.9489 18 12.75C18 12.5511 17.921 12.3603 17.7803 12.2197C17.6397 12.079 17.4489 12 17.25 12H3.75ZM0 17.25C0 17.0511 0.0790176 16.8603 0.21967 16.7197C0.360322 16.579 0.551088 16.5 0.75 16.5H14.25C14.4489 16.5 14.6397 16.579 14.7803 16.7197C14.921 16.8603 15 17.0511 15 17.25C15 17.4489 14.921 17.6397 14.7803 17.7803C14.6397 17.921 14.4489 18 14.25 18H0.75C0.551088 18 0.360322 17.921 0.21967 17.7803C0.0790176 17.6397 0 17.4489 0 17.25Z" fill="#4B3EAE"/>
</svg>
