<svg width="24" height="24" viewBox="0 0 24 24" fill="none" xmlns="http://www.w3.org/2000/svg">
<path d="M19.5 22.5H16.5C16.1025 22.4988 15.7217 22.3404 15.4407 22.0594C15.1596 21.7783 15.0012 21.3975 15 21V15.75C14.6025 15.7488 14.2217 15.5904 13.9407 15.3094C13.6596 15.0283 13.5012 14.6475 13.5 14.25V9.75C13.4945 9.45302 13.549 9.15797 13.6601 8.8825C13.7712 8.60704 13.9367 8.35681 14.1468 8.14677C14.3568 7.93673 14.607 7.7712 14.8825 7.66008C15.158 7.54895 15.453 7.49451 15.75 7.5H20.25C20.547 7.49451 20.842 7.54895 21.1175 7.66008C21.393 7.7712 21.6432 7.93673 21.8532 8.14677C22.0633 8.35681 22.2288 8.60704 22.3399 8.8825C22.4511 9.15797 22.5055 9.45302 22.5 9.75V14.25C22.4988 14.6475 22.3404 15.0283 22.0594 15.3094C21.7783 15.5904 21.3975 15.7488 21 15.75V21C20.9988 21.3975 20.8404 21.7783 20.5594 22.0594C20.2783 22.3404 19.8975 22.4988 19.5 22.5V22.5ZM15.75 9C15.6499 8.99399 15.5497 9.00927 15.456 9.04483C15.3623 9.08039 15.2772 9.13543 15.2063 9.20631C15.1354 9.27719 15.0804 9.3623 15.0448 9.45602C15.0093 9.54974 14.994 9.64994 15 9.75V14.25H16.5V21H19.5V14.25H21V9.75C21.006 9.64994 20.9907 9.54974 20.9552 9.45602C20.9196 9.3623 20.8646 9.27719 20.7937 9.20631C20.7228 9.13543 20.6377 9.08039 20.544 9.04483C20.4503 9.00927 20.3501 8.99399 20.25 9H15.75ZM18 6.75C17.4067 6.75 16.8266 6.57405 16.3333 6.24441C15.8399 5.91477 15.4554 5.44623 15.2284 4.89805C15.0013 4.34987 14.9419 3.74667 15.0576 3.16473C15.1734 2.58279 15.4591 2.04824 15.8787 1.62868C16.2982 1.20912 16.8328 0.923401 17.4147 0.807646C17.9967 0.69189 18.5999 0.7513 19.1481 0.978363C19.6962 1.20543 20.1648 1.58994 20.4944 2.08329C20.8241 2.57664 21 3.15666 21 3.75C20.9976 4.54492 20.6808 5.3066 20.1187 5.8687C19.5566 6.43079 18.7949 6.74763 18 6.75ZM18 2.25C17.7033 2.25 17.4133 2.33797 17.1666 2.5028C16.92 2.66762 16.7277 2.90189 16.6142 3.17598C16.5007 3.45007 16.4709 3.75167 16.5288 4.04264C16.5867 4.33361 16.7296 4.60088 16.9393 4.81066C17.1491 5.02044 17.4164 5.1633 17.7074 5.22118C17.9983 5.27906 18.2999 5.24935 18.574 5.13582C18.8481 5.02229 19.0824 4.83003 19.2472 4.58336C19.412 4.33668 19.5 4.04667 19.5 3.75C19.4988 3.35254 19.3404 2.9717 19.0594 2.69065C18.7783 2.4096 18.3975 2.25119 18 2.25V2.25ZM7.5 15.138V9H6V15.138C5.49959 15.3149 5.07784 15.6631 4.80928 16.1209C4.54072 16.5787 4.44265 17.1167 4.53241 17.6398C4.62216 18.1629 4.89396 18.6375 5.29976 18.9796C5.70556 19.3217 6.21924 19.5093 6.75 19.5093C7.28077 19.5093 7.79445 19.3217 8.20025 18.9796C8.60605 18.6375 8.87785 18.1629 8.9676 17.6398C9.05735 17.1167 8.95929 16.5787 8.69073 16.1209C8.42217 15.6631 8.00042 15.3149 7.5 15.138V15.138Z" fill="#4B3EAE"/>
<path d="M6.75001 22.5C5.71649 22.5012 4.70567 22.1969 3.84447 21.6255C2.98327 21.0541 2.31008 20.241 1.90945 19.2883C1.50881 18.3356 1.39859 17.2858 1.59261 16.2706C1.78664 15.2555 2.27627 14.3203 3.00001 13.5825V5.25C3.00001 4.25544 3.3951 3.30161 4.09836 2.59835C4.80162 1.89509 5.75545 1.5 6.75001 1.5C7.74457 1.5 8.6984 1.89509 9.40166 2.59835C10.1049 3.30161 10.5 4.25544 10.5 5.25V13.5825C11.2238 14.3203 11.7134 15.2555 11.9074 16.2706C12.1014 17.2858 11.9912 18.3356 11.5906 19.2883C11.1899 20.241 10.5168 21.0541 9.65556 21.6255C8.79436 22.1969 7.78353 22.5012 6.75001 22.5ZM6.75001 3C6.15346 3.0006 5.58151 3.23784 5.15968 3.65967C4.73785 4.0815 4.50061 4.65345 4.50001 5.25V14.2373L4.25101 14.4615C3.68467 14.9677 3.2854 15.6339 3.10605 16.372C2.92669 17.1101 2.97572 17.8853 3.24663 18.5949C3.51754 19.3046 3.99756 19.9152 4.62315 20.346C5.24875 20.7768 5.99043 21.0075 6.75001 21.0075C7.50959 21.0075 8.25127 20.7768 8.87687 20.346C9.50247 19.9152 9.98249 19.3046 10.2534 18.5949C10.5243 17.8853 10.5733 17.1101 10.394 16.372C10.2146 15.6339 9.81535 14.9677 9.24901 14.4615L9.00001 14.2373V5.25C8.99942 4.65345 8.76217 4.0815 8.34034 3.65967C7.91852 3.23784 7.34657 3.0006 6.75001 3V3Z" fill="#4B3EAE"/>
</svg>
