<svg width="25" height="24" viewBox="0 0 25 24" fill="none" xmlns="http://www.w3.org/2000/svg">
<path d="M12.5 4C7.80998 4 3.75998 6.74 1.84998 10.7C1.60998 11.2 1.60998 11.8 1.84998 12.3C3.75998 16.26 7.80998 19 12.5 19C17.19 19 21.24 16.26 23.15 12.3C23.39 11.8 23.39 11.2 23.15 10.7C21.24 6.74 17.19 4 12.5 4ZM12.5 16C10.02 16 7.99998 13.98 7.99998 11.5C7.99998 9.02 10.02 7 12.5 7C14.98 7 17 9.02 17 11.5C17 13.98 14.98 16 12.5 16Z" fill="#4B3EAE"/>
<path d="M12.5 14.2C13.9912 14.2 15.2 12.9912 15.2 11.5C15.2 10.0088 13.9912 8.8 12.5 8.8C11.0088 8.8 9.79999 10.0088 9.79999 11.5C9.79999 12.9912 11.0088 14.2 12.5 14.2Z" fill="#4B3EAE"/>
</svg>
