<svg width="32" height="32" viewBox="0 0 32 32" fill="none" xmlns="http://www.w3.org/2000/svg">
<path d="M13 30H9C8.46981 29.9992 7.96156 29.7882 7.58666 29.4133C7.21176 29.0384 7.00079 28.5302 7 28V20H9V28H13V20H15V28C14.9992 28.5302 14.7882 29.0384 14.4133 29.4133C14.0384 29.7882 13.5302 29.9992 13 30ZM25 20H23.25L21 29.031L18.792 20H17L19.5 30H22.5L25 20ZM15 2H17V7H15V2ZM21.688 8.9L25.194 5.394L26.608 6.808L23.102 10.314L21.688 8.9ZM25 15H30V17H25V15ZM2 15H7V17H2V15ZM5.395 6.808L6.809 5.394L10.315 8.9L8.9 10.314L5.395 6.808ZM22 17H20V16C20 14.9391 19.5786 13.9217 18.8284 13.1716C18.0783 12.4214 17.0609 12 16 12C14.9391 12 13.9217 12.4214 13.1716 13.1716C12.4214 13.9217 12 14.9391 12 16V17H10V16C10 14.4087 10.6321 12.8826 11.7574 11.7574C12.8826 10.6321 14.4087 10 16 10C17.5913 10 19.1174 10.6321 20.2426 11.7574C21.3679 12.8826 22 14.4087 22 16V17Z" fill="#4B3EAE"/>
</svg>
